<mxfile host="app.diagrams.net" modified="2024-01-06T09:33:10.885Z" agent="Mozilla/5.0 (Windows NT 10.0; Win64; x64) AppleWebKit/537.36 (KHTML, like Gecko) Chrome/120.0.0.0 Safari/537.36" etag="fGYT_XsFk2RwWLzBaqDi" version="22.1.17" type="device">
  <diagram name="Page-1" id="_YU-OsNZQCLQ5xC6rC2F">
    <mxGraphModel dx="1195" dy="658" grid="0" gridSize="10" guides="1" tooltips="1" connect="1" arrows="1" fold="1" page="1" pageScale="1" pageWidth="850" pageHeight="1100" math="0" shadow="0">
      <root>
        <mxCell id="0" />
        <mxCell id="1" parent="0" />
        <mxCell id="QliI198V3Rkb6xiWOrOB-1" value="" style="rounded=0;whiteSpace=wrap;html=1;" vertex="1" parent="1">
          <mxGeometry x="123" y="25" width="568" height="700" as="geometry" />
        </mxCell>
        <mxCell id="iCPJFm4jBijz2kU2VRec-1" value="Worker&lt;br&gt;" style="shape=umlActor;verticalLabelPosition=bottom;verticalAlign=top;html=1;outlineConnect=0;" parent="1" vertex="1">
          <mxGeometry x="70" y="90" width="30" height="60" as="geometry" />
        </mxCell>
        <mxCell id="iCPJFm4jBijz2kU2VRec-5" value="Admin" style="shape=umlActor;verticalLabelPosition=bottom;verticalAlign=top;html=1;outlineConnect=0;" parent="1" vertex="1">
          <mxGeometry x="70" y="390" width="30" height="60" as="geometry" />
        </mxCell>
        <mxCell id="iCPJFm4jBijz2kU2VRec-6" value="Admin" style="shape=umlActor;verticalLabelPosition=bottom;verticalAlign=top;html=1;outlineConnect=0;" parent="1" vertex="1">
          <mxGeometry x="729" y="87" width="30" height="60" as="geometry" />
        </mxCell>
        <mxCell id="iCPJFm4jBijz2kU2VRec-7" value="Worker&lt;br&gt;" style="shape=umlActor;verticalLabelPosition=bottom;verticalAlign=top;html=1;outlineConnect=0;" parent="1" vertex="1">
          <mxGeometry x="738" y="300" width="30" height="60" as="geometry" />
        </mxCell>
        <mxCell id="iCPJFm4jBijz2kU2VRec-8" value="System" style="shape=umlActor;verticalLabelPosition=bottom;verticalAlign=top;html=1;outlineConnect=0;" parent="1" vertex="1">
          <mxGeometry x="736" y="488" width="30" height="60" as="geometry" />
        </mxCell>
        <mxCell id="iCPJFm4jBijz2kU2VRec-10" value="View Payslip" style="ellipse;whiteSpace=wrap;html=1;" parent="1" vertex="1">
          <mxGeometry x="160" y="70" width="80" height="40" as="geometry" />
        </mxCell>
        <mxCell id="iCPJFm4jBijz2kU2VRec-11" value="Requests" style="ellipse;whiteSpace=wrap;html=1;" parent="1" vertex="1">
          <mxGeometry x="160" y="120" width="80" height="40" as="geometry" />
        </mxCell>
        <mxCell id="iCPJFm4jBijz2kU2VRec-12" value="Punch In/Out" style="ellipse;whiteSpace=wrap;html=1;" parent="1" vertex="1">
          <mxGeometry x="160" y="170" width="80" height="40" as="geometry" />
        </mxCell>
        <mxCell id="iCPJFm4jBijz2kU2VRec-14" value="" style="endArrow=none;html=1;rounded=0;entryX=0;entryY=0.5;entryDx=0;entryDy=0;" parent="1" target="iCPJFm4jBijz2kU2VRec-10" edge="1">
          <mxGeometry width="50" height="50" relative="1" as="geometry">
            <mxPoint x="100" y="120" as="sourcePoint" />
            <mxPoint x="150" y="70" as="targetPoint" />
          </mxGeometry>
        </mxCell>
        <mxCell id="iCPJFm4jBijz2kU2VRec-15" value="" style="endArrow=none;html=1;rounded=0;entryX=0;entryY=0.5;entryDx=0;entryDy=0;" parent="1" target="iCPJFm4jBijz2kU2VRec-11" edge="1">
          <mxGeometry width="50" height="50" relative="1" as="geometry">
            <mxPoint x="100" y="120" as="sourcePoint" />
            <mxPoint x="150" y="70" as="targetPoint" />
          </mxGeometry>
        </mxCell>
        <mxCell id="iCPJFm4jBijz2kU2VRec-16" value="" style="endArrow=none;html=1;rounded=0;entryX=0;entryY=0.5;entryDx=0;entryDy=0;" parent="1" target="iCPJFm4jBijz2kU2VRec-12" edge="1">
          <mxGeometry width="50" height="50" relative="1" as="geometry">
            <mxPoint x="100" y="120" as="sourcePoint" />
            <mxPoint x="150" y="70" as="targetPoint" />
          </mxGeometry>
        </mxCell>
        <mxCell id="iCPJFm4jBijz2kU2VRec-17" value="OT" style="ellipse;whiteSpace=wrap;html=1;" parent="1" vertex="1">
          <mxGeometry x="310" y="100" width="80" height="40" as="geometry" />
        </mxCell>
        <mxCell id="iCPJFm4jBijz2kU2VRec-18" value="Leave" style="ellipse;whiteSpace=wrap;html=1;" parent="1" vertex="1">
          <mxGeometry x="310" y="140" width="80" height="40" as="geometry" />
        </mxCell>
        <mxCell id="iCPJFm4jBijz2kU2VRec-19" value="" style="endArrow=none;html=1;rounded=0;entryX=0;entryY=0.5;entryDx=0;entryDy=0;exitX=1;exitY=0.5;exitDx=0;exitDy=0;" parent="1" source="iCPJFm4jBijz2kU2VRec-11" target="iCPJFm4jBijz2kU2VRec-17" edge="1">
          <mxGeometry width="50" height="50" relative="1" as="geometry">
            <mxPoint x="260" y="180" as="sourcePoint" />
            <mxPoint x="310" y="130" as="targetPoint" />
          </mxGeometry>
        </mxCell>
        <mxCell id="iCPJFm4jBijz2kU2VRec-20" value="" style="endArrow=none;html=1;rounded=0;entryX=0;entryY=0.5;entryDx=0;entryDy=0;exitX=1;exitY=0.5;exitDx=0;exitDy=0;" parent="1" source="iCPJFm4jBijz2kU2VRec-11" target="iCPJFm4jBijz2kU2VRec-18" edge="1">
          <mxGeometry width="50" height="50" relative="1" as="geometry">
            <mxPoint x="260" y="180" as="sourcePoint" />
            <mxPoint x="310" y="130" as="targetPoint" />
          </mxGeometry>
        </mxCell>
        <mxCell id="iCPJFm4jBijz2kU2VRec-24" value="Print Payslip" style="ellipse;whiteSpace=wrap;html=1;" parent="1" vertex="1">
          <mxGeometry x="400" y="70" width="80" height="40" as="geometry" />
        </mxCell>
        <mxCell id="iCPJFm4jBijz2kU2VRec-26" value="" style="endArrow=none;dashed=1;html=1;rounded=0;entryX=0;entryY=0.5;entryDx=0;entryDy=0;" parent="1" target="iCPJFm4jBijz2kU2VRec-24" edge="1">
          <mxGeometry width="50" height="50" relative="1" as="geometry">
            <mxPoint x="240" y="90" as="sourcePoint" />
            <mxPoint x="290" y="40" as="targetPoint" />
          </mxGeometry>
        </mxCell>
        <mxCell id="iCPJFm4jBijz2kU2VRec-27" value="" style="endArrow=none;html=1;rounded=0;" parent="1" edge="1">
          <mxGeometry width="50" height="50" relative="1" as="geometry">
            <mxPoint x="390" y="120" as="sourcePoint" />
            <mxPoint x="410" y="130" as="targetPoint" />
          </mxGeometry>
        </mxCell>
        <mxCell id="iCPJFm4jBijz2kU2VRec-28" value="" style="endArrow=none;html=1;rounded=0;exitX=1;exitY=0.5;exitDx=0;exitDy=0;" parent="1" source="iCPJFm4jBijz2kU2VRec-18" edge="1">
          <mxGeometry width="50" height="50" relative="1" as="geometry">
            <mxPoint x="390" y="130" as="sourcePoint" />
            <mxPoint x="410" y="130" as="targetPoint" />
          </mxGeometry>
        </mxCell>
        <mxCell id="iCPJFm4jBijz2kU2VRec-29" value="" style="endArrow=none;html=1;rounded=0;" parent="1" edge="1">
          <mxGeometry width="50" height="50" relative="1" as="geometry">
            <mxPoint x="410" y="130" as="sourcePoint" />
            <mxPoint x="725" y="126" as="targetPoint" />
          </mxGeometry>
        </mxCell>
        <mxCell id="iCPJFm4jBijz2kU2VRec-30" value="View All Employees profile" style="ellipse;whiteSpace=wrap;html=1;fontSize=10;" parent="1" vertex="1">
          <mxGeometry x="135" y="318" width="80" height="40" as="geometry" />
        </mxCell>
        <mxCell id="iCPJFm4jBijz2kU2VRec-31" value="Add Employees information" style="ellipse;whiteSpace=wrap;html=1;fontSize=10;" parent="1" vertex="1">
          <mxGeometry x="170" y="370" width="80" height="40" as="geometry" />
        </mxCell>
        <mxCell id="iCPJFm4jBijz2kU2VRec-32" value="Prepare Cheque" style="ellipse;whiteSpace=wrap;html=1;fontSize=10;" parent="1" vertex="1">
          <mxGeometry x="240" y="410" width="80" height="40" as="geometry" />
        </mxCell>
        <mxCell id="iCPJFm4jBijz2kU2VRec-33" value="View Employees payslip history" style="ellipse;whiteSpace=wrap;html=1;fontSize=10;" parent="1" vertex="1">
          <mxGeometry x="150" y="480" width="80" height="40" as="geometry" />
        </mxCell>
        <mxCell id="iCPJFm4jBijz2kU2VRec-34" value="View Employees profile" style="ellipse;whiteSpace=wrap;html=1;fontSize=10;" parent="1" vertex="1">
          <mxGeometry x="130" y="550" width="80" height="40" as="geometry" />
        </mxCell>
        <mxCell id="iCPJFm4jBijz2kU2VRec-35" value="" style="endArrow=none;html=1;rounded=0;entryX=0.5;entryY=1;entryDx=0;entryDy=0;" parent="1" target="iCPJFm4jBijz2kU2VRec-30" edge="1">
          <mxGeometry width="50" height="50" relative="1" as="geometry">
            <mxPoint x="100" y="430" as="sourcePoint" />
            <mxPoint x="150" y="380" as="targetPoint" />
          </mxGeometry>
        </mxCell>
        <mxCell id="iCPJFm4jBijz2kU2VRec-36" value="" style="endArrow=none;html=1;rounded=0;entryX=0;entryY=0.5;entryDx=0;entryDy=0;" parent="1" target="iCPJFm4jBijz2kU2VRec-31" edge="1">
          <mxGeometry width="50" height="50" relative="1" as="geometry">
            <mxPoint x="100" y="430" as="sourcePoint" />
            <mxPoint x="150" y="380" as="targetPoint" />
          </mxGeometry>
        </mxCell>
        <mxCell id="iCPJFm4jBijz2kU2VRec-37" value="" style="endArrow=none;html=1;rounded=0;entryX=0;entryY=0.5;entryDx=0;entryDy=0;" parent="1" target="iCPJFm4jBijz2kU2VRec-32" edge="1">
          <mxGeometry width="50" height="50" relative="1" as="geometry">
            <mxPoint x="100" y="430" as="sourcePoint" />
            <mxPoint x="370" y="370" as="targetPoint" />
          </mxGeometry>
        </mxCell>
        <mxCell id="iCPJFm4jBijz2kU2VRec-38" value="" style="endArrow=none;html=1;rounded=0;entryX=0;entryY=0.5;entryDx=0;entryDy=0;" parent="1" target="iCPJFm4jBijz2kU2VRec-33" edge="1">
          <mxGeometry width="50" height="50" relative="1" as="geometry">
            <mxPoint x="100" y="430" as="sourcePoint" />
            <mxPoint x="370" y="460" as="targetPoint" />
          </mxGeometry>
        </mxCell>
        <mxCell id="iCPJFm4jBijz2kU2VRec-39" value="" style="endArrow=none;html=1;rounded=0;entryX=0;entryY=0.5;entryDx=0;entryDy=0;" parent="1" target="iCPJFm4jBijz2kU2VRec-34" edge="1">
          <mxGeometry width="50" height="50" relative="1" as="geometry">
            <mxPoint x="100" y="430" as="sourcePoint" />
            <mxPoint x="370" y="460" as="targetPoint" />
          </mxGeometry>
        </mxCell>
        <mxCell id="iCPJFm4jBijz2kU2VRec-40" value="Login" style="ellipse;whiteSpace=wrap;html=1;" parent="1" vertex="1">
          <mxGeometry x="620" y="326.67" width="70" height="46.67" as="geometry" />
        </mxCell>
        <mxCell id="iCPJFm4jBijz2kU2VRec-41" value="" style="endArrow=none;dashed=1;html=1;rounded=0;exitX=1;exitY=0.5;exitDx=0;exitDy=0;entryX=0;entryY=0.5;entryDx=0;entryDy=0;" parent="1" source="iCPJFm4jBijz2kU2VRec-12" target="iCPJFm4jBijz2kU2VRec-40" edge="1">
          <mxGeometry width="50" height="50" relative="1" as="geometry">
            <mxPoint x="240" y="145" as="sourcePoint" />
            <mxPoint x="390" y="270" as="targetPoint" />
          </mxGeometry>
        </mxCell>
        <mxCell id="iCPJFm4jBijz2kU2VRec-43" value="View Dashboard" style="ellipse;whiteSpace=wrap;html=1;" parent="1" vertex="1">
          <mxGeometry x="160" y="220" width="80" height="40" as="geometry" />
        </mxCell>
        <mxCell id="iCPJFm4jBijz2kU2VRec-44" value="" style="endArrow=none;html=1;rounded=0;entryX=0;entryY=0.5;entryDx=0;entryDy=0;" parent="1" target="iCPJFm4jBijz2kU2VRec-43" edge="1">
          <mxGeometry width="50" height="50" relative="1" as="geometry">
            <mxPoint x="100" y="120" as="sourcePoint" />
            <mxPoint x="370" y="350" as="targetPoint" />
          </mxGeometry>
        </mxCell>
        <mxCell id="iCPJFm4jBijz2kU2VRec-45" value="" style="endArrow=none;dashed=1;html=1;rounded=0;exitX=1;exitY=0.5;exitDx=0;exitDy=0;entryX=0;entryY=0.5;entryDx=0;entryDy=0;" parent="1" source="iCPJFm4jBijz2kU2VRec-43" target="iCPJFm4jBijz2kU2VRec-40" edge="1">
          <mxGeometry width="50" height="50" relative="1" as="geometry">
            <mxPoint x="320" y="400" as="sourcePoint" />
            <mxPoint x="370" y="350" as="targetPoint" />
          </mxGeometry>
        </mxCell>
        <mxCell id="iCPJFm4jBijz2kU2VRec-46" value="" style="endArrow=none;dashed=1;html=1;rounded=0;exitX=1;exitY=1;exitDx=0;exitDy=0;" parent="1" source="iCPJFm4jBijz2kU2VRec-11" edge="1">
          <mxGeometry width="50" height="50" relative="1" as="geometry">
            <mxPoint x="320" y="400" as="sourcePoint" />
            <mxPoint x="620" y="350" as="targetPoint" />
          </mxGeometry>
        </mxCell>
        <mxCell id="iCPJFm4jBijz2kU2VRec-47" value="" style="endArrow=none;dashed=1;html=1;rounded=0;exitX=0.5;exitY=1;exitDx=0;exitDy=0;" parent="1" source="iCPJFm4jBijz2kU2VRec-10" edge="1">
          <mxGeometry width="50" height="50" relative="1" as="geometry">
            <mxPoint x="320" y="400" as="sourcePoint" />
            <mxPoint x="620" y="350" as="targetPoint" />
          </mxGeometry>
        </mxCell>
        <mxCell id="iCPJFm4jBijz2kU2VRec-48" value="" style="endArrow=none;dashed=1;html=1;rounded=0;exitX=1;exitY=0.5;exitDx=0;exitDy=0;entryX=0;entryY=0.5;entryDx=0;entryDy=0;" parent="1" source="iCPJFm4jBijz2kU2VRec-30" target="iCPJFm4jBijz2kU2VRec-40" edge="1">
          <mxGeometry width="50" height="50" relative="1" as="geometry">
            <mxPoint x="320" y="400" as="sourcePoint" />
            <mxPoint x="370" y="350" as="targetPoint" />
          </mxGeometry>
        </mxCell>
        <mxCell id="iCPJFm4jBijz2kU2VRec-49" value="" style="endArrow=none;dashed=1;html=1;rounded=0;exitX=0.5;exitY=0;exitDx=0;exitDy=0;entryX=0;entryY=0.5;entryDx=0;entryDy=0;" parent="1" source="iCPJFm4jBijz2kU2VRec-31" target="iCPJFm4jBijz2kU2VRec-40" edge="1">
          <mxGeometry width="50" height="50" relative="1" as="geometry">
            <mxPoint x="320" y="400" as="sourcePoint" />
            <mxPoint x="500" y="350" as="targetPoint" />
          </mxGeometry>
        </mxCell>
        <mxCell id="iCPJFm4jBijz2kU2VRec-50" value="" style="endArrow=none;dashed=1;html=1;rounded=0;entryX=0;entryY=0.5;entryDx=0;entryDy=0;" parent="1" target="iCPJFm4jBijz2kU2VRec-40" edge="1">
          <mxGeometry width="50" height="50" relative="1" as="geometry">
            <mxPoint x="230" y="500" as="sourcePoint" />
            <mxPoint x="280" y="450" as="targetPoint" />
          </mxGeometry>
        </mxCell>
        <mxCell id="iCPJFm4jBijz2kU2VRec-51" value="" style="endArrow=none;html=1;rounded=0;exitX=0.5;exitY=0;exitDx=0;exitDy=0;" parent="1" source="iCPJFm4jBijz2kU2VRec-32" edge="1">
          <mxGeometry width="50" height="50" relative="1" as="geometry">
            <mxPoint x="320" y="400" as="sourcePoint" />
            <mxPoint x="726" y="125" as="targetPoint" />
          </mxGeometry>
        </mxCell>
        <mxCell id="iCPJFm4jBijz2kU2VRec-54" value="" style="endArrow=none;dashed=1;html=1;rounded=0;exitX=1;exitY=0.5;exitDx=0;exitDy=0;" parent="1" source="iCPJFm4jBijz2kU2VRec-34" edge="1">
          <mxGeometry width="50" height="50" relative="1" as="geometry">
            <mxPoint x="440" y="430" as="sourcePoint" />
            <mxPoint x="620" y="350" as="targetPoint" />
          </mxGeometry>
        </mxCell>
        <mxCell id="iCPJFm4jBijz2kU2VRec-56" value="Distribute Cheque" style="ellipse;whiteSpace=wrap;html=1;fontSize=10;" parent="1" vertex="1">
          <mxGeometry x="470" y="470" width="80" height="40" as="geometry" />
        </mxCell>
        <mxCell id="iCPJFm4jBijz2kU2VRec-57" value="" style="endArrow=none;html=1;rounded=0;entryX=0;entryY=0.5;entryDx=0;entryDy=0;" parent="1" target="iCPJFm4jBijz2kU2VRec-56" edge="1">
          <mxGeometry width="50" height="50" relative="1" as="geometry">
            <mxPoint x="100" y="430" as="sourcePoint" />
            <mxPoint x="150" y="380" as="targetPoint" />
          </mxGeometry>
        </mxCell>
        <mxCell id="iCPJFm4jBijz2kU2VRec-58" value="" style="endArrow=none;html=1;rounded=0;" parent="1" edge="1" target="iCPJFm4jBijz2kU2VRec-7">
          <mxGeometry width="50" height="50" relative="1" as="geometry">
            <mxPoint x="550" y="490" as="sourcePoint" />
            <mxPoint x="736" y="353" as="targetPoint" />
          </mxGeometry>
        </mxCell>
        <mxCell id="iCPJFm4jBijz2kU2VRec-59" value="Compute Employees Salary" style="ellipse;whiteSpace=wrap;html=1;fontSize=10;" parent="1" vertex="1">
          <mxGeometry x="440" y="520" width="80" height="40" as="geometry" />
        </mxCell>
        <mxCell id="iCPJFm4jBijz2kU2VRec-60" value="" style="endArrow=none;html=1;rounded=0;entryX=0;entryY=0.5;entryDx=0;entryDy=0;" parent="1" target="iCPJFm4jBijz2kU2VRec-59" edge="1">
          <mxGeometry width="50" height="50" relative="1" as="geometry">
            <mxPoint x="100" y="430" as="sourcePoint" />
            <mxPoint x="490" y="380" as="targetPoint" />
          </mxGeometry>
        </mxCell>
        <mxCell id="iCPJFm4jBijz2kU2VRec-61" value="" style="endArrow=none;html=1;rounded=0;" parent="1" edge="1">
          <mxGeometry width="50" height="50" relative="1" as="geometry">
            <mxPoint x="520" y="540" as="sourcePoint" />
            <mxPoint x="735" y="527" as="targetPoint" />
          </mxGeometry>
        </mxCell>
        <mxCell id="iCPJFm4jBijz2kU2VRec-63" value="Compute Employees Loans" style="ellipse;whiteSpace=wrap;html=1;fontSize=10;" parent="1" vertex="1">
          <mxGeometry x="440" y="570" width="80" height="40" as="geometry" />
        </mxCell>
        <mxCell id="iCPJFm4jBijz2kU2VRec-65" value="" style="endArrow=none;html=1;rounded=0;exitX=1;exitY=0.5;exitDx=0;exitDy=0;" parent="1" source="iCPJFm4jBijz2kU2VRec-63" edge="1">
          <mxGeometry width="50" height="50" relative="1" as="geometry">
            <mxPoint x="440" y="430" as="sourcePoint" />
            <mxPoint x="735" y="527" as="targetPoint" />
          </mxGeometry>
        </mxCell>
        <mxCell id="iCPJFm4jBijz2kU2VRec-66" value="Compute Employees Contribution of Taxes" style="ellipse;whiteSpace=wrap;html=1;fontSize=10;" parent="1" vertex="1">
          <mxGeometry x="430" y="620" width="100" height="50" as="geometry" />
        </mxCell>
        <mxCell id="iCPJFm4jBijz2kU2VRec-67" value="" style="endArrow=none;html=1;rounded=0;exitX=1;exitY=0.5;exitDx=0;exitDy=0;" parent="1" source="iCPJFm4jBijz2kU2VRec-66" edge="1">
          <mxGeometry width="50" height="50" relative="1" as="geometry">
            <mxPoint x="440" y="430" as="sourcePoint" />
            <mxPoint x="734" y="529" as="targetPoint" />
          </mxGeometry>
        </mxCell>
        <mxCell id="iCPJFm4jBijz2kU2VRec-68" value="Track Employees attendance" style="ellipse;whiteSpace=wrap;html=1;fontSize=10;" parent="1" vertex="1">
          <mxGeometry x="480" y="680" width="80" height="40" as="geometry" />
        </mxCell>
        <mxCell id="iCPJFm4jBijz2kU2VRec-69" value="" style="endArrow=none;html=1;rounded=0;exitX=1;exitY=0.5;exitDx=0;exitDy=0;" parent="1" source="iCPJFm4jBijz2kU2VRec-68" edge="1">
          <mxGeometry width="50" height="50" relative="1" as="geometry">
            <mxPoint x="440" y="630" as="sourcePoint" />
            <mxPoint x="735" y="528" as="targetPoint" />
          </mxGeometry>
        </mxCell>
      </root>
    </mxGraphModel>
  </diagram>
</mxfile>
